<?xml version="1.0" encoding="utf-8"?>
<!-- Generator: Adobe Illustrator 28.1.0, SVG Export Plug-In . SVG Version: 6.00 Build 0)  -->
<svg version="1.1" id="Layer_1" xmlns="http://www.w3.org/2000/svg" xmlns:xlink="http://www.w3.org/1999/xlink" x="0px" y="0px"
	 viewBox="0 0 16 16" style="enable-background:new 0 0 16 16;" xml:space="preserve">
<style type="text/css">
	.st0{fill:#FFFFFF;}
</style>
<g>
	<rect x="0" y="0" width="16" height="16"/>
	<g>
		<path class="st0" d="M6.3,9.8h-3l-0.6,1.7H1.4l2.7-6.9h1.4l2.7,6.9H7L6.3,9.8z M5.9,8.7L4.8,5.8L3.7,8.7H5.9z"/>
		<path class="st0" d="M7.9,8c0-2.1,1.2-3.5,3.3-3.5c1.7,0,2.7,1,2.8,2.3h-1.2c-0.1-0.8-0.7-1.3-1.6-1.3h-0.1c-1.3,0-2,1-2,2.5
			s0.8,2.5,2,2.5h0.1c0.9,0,1.5-0.5,1.6-1.3H14c-0.1,1.4-1.2,2.3-2.8,2.3C9.1,11.5,7.9,10.1,7.9,8z"/>
	</g>
</g>
</svg>
