<?xml version="1.0" encoding="utf-8"?>
<!-- Generator: Adobe Illustrator 28.1.0, SVG Export Plug-In . SVG Version: 6.00 Build 0)  -->
<svg version="1.1" id="Layer_1" xmlns="http://www.w3.org/2000/svg" xmlns:xlink="http://www.w3.org/1999/xlink" x="0px" y="0px"
	 viewBox="0 0 16 16" style="enable-background:new 0 0 16 16;" xml:space="preserve">
<style type="text/css">
	.st0{fill:#FFFFFF;}
</style>
<g>
	<rect x="0" y="0" width="16" height="16"/>
	<g>
		<path class="st0" d="M7.58,9.63H4.23l-0.72,1.8h-0.9l2.75-6.86h1.12l1.54,3.87L7.58,9.63z M7.27,8.82L5.91,5.38L4.54,8.82H7.27z"
			/>
		<path class="st0" d="M7.27,8c0-2.01,1.22-3.53,3.21-3.53c1.48,0,2.62,0.88,2.71,2.24H12.3c-0.1-0.82-0.75-1.43-1.77-1.43h-0.1
			C8.96,5.27,8.16,6.49,8.16,8s0.8,2.73,2.27,2.73h0.1c1.03,0,1.68-0.61,1.77-1.43h0.88c-0.09,1.35-1.23,2.24-2.71,2.24
			C8.49,11.53,7.27,10.01,7.27,8z"/>
	</g>
</g>
</svg>
